<svg width="30" height="32" viewBox="0 0 30 32" fill="none" xmlns="http://www.w3.org/2000/svg">
<path d="M7.65919 31.7528V24.0443H0.510254V8.62725H7.65919V0.918732H21.9571V8.62725H29.106V24.0443H21.9571V31.7528H7.65919ZM2.65493 15.1795H10.5188C10.6993 15.1795 10.8708 15.2259 11.0333 15.3187C11.1957 15.4115 11.3221 15.5321 11.4124 15.6806L13.0566 18.3785L15.2013 11.3638C15.2748 11.1325 15.408 10.9398 15.6008 10.7856C15.7937 10.6315 16.0096 10.5544 16.2484 10.5544C16.432 10.5544 16.5954 10.6058 16.7383 10.7086C16.8813 10.8113 17.0124 10.9398 17.1315 11.094L19.6694 15.1795H26.9613V10.9398H19.8124V3.23129H9.80387V10.9398H2.65493V15.1795ZM9.80387 29.4403H19.8124V21.7317H26.9613V17.4921H19.0975C18.9069 17.4921 18.74 17.4407 18.5971 17.3379C18.4541 17.2351 18.323 17.1066 18.2039 16.9525L16.5596 14.293L14.3792 21.3078C14.3083 21.539 14.1754 21.7317 13.9805 21.8859C13.7856 22.0401 13.573 22.1172 13.3426 22.1172C13.152 22.1172 12.9851 22.0658 12.8422 21.963C12.6992 21.8602 12.58 21.7317 12.4847 21.5776L9.94685 17.4921H2.65493V21.7317H9.80387V29.4403Z" fill="black"/>
</svg>
