<svg width="26" height="29" viewBox="0 0 26 29" fill="none" xmlns="http://www.w3.org/2000/svg">
<path d="M4.36857 24.6766C3.29727 23.4406 2.45809 22.0123 1.85102 20.3917C1.24396 18.7711 0.94043 17.1094 0.94043 15.4064C0.94043 13.4013 1.25375 11.5679 1.8804 9.90612C2.50705 8.24436 3.44703 6.71306 4.70032 5.31224C5.56043 4.35089 6.62942 3.54061 7.90729 2.8814C9.18516 2.22219 10.6903 1.70718 12.4228 1.33637C14.1553 0.965564 16.1152 0.732093 18.3023 0.635958C20.4894 0.539823 22.9223 0.587891 25.6009 0.780161C25.7975 3.74661 25.8651 6.45899 25.8036 8.9173C25.7422 11.3756 25.5456 13.5833 25.2139 15.5403C24.8821 17.4974 24.4152 19.208 23.8131 20.6724C23.211 22.1368 22.4677 23.3616 21.583 24.347C20.3297 25.7478 18.9781 26.8053 17.5282 27.5194C16.0783 28.2336 14.5301 28.5906 12.8836 28.5906C11.188 28.5906 9.63365 28.2679 8.22062 27.6224C6.80758 26.977 5.52357 25.995 4.36857 24.6766ZM8.16532 24.6766C8.77968 25.1435 9.49234 25.5006 10.3033 25.7478C11.1143 25.995 11.9734 26.1186 12.8808 26.1186C14.1851 26.1186 15.4517 25.8165 16.6804 25.2122C17.9091 24.6079 19.0272 23.729 20.0348 22.5753C20.6983 21.8337 21.2635 20.8655 21.7304 19.6707C22.1973 18.4759 22.5782 17.0613 22.8731 15.427C23.168 13.7927 23.3646 11.9456 23.4629 9.88552C23.5612 7.82548 23.5612 5.55944 23.4629 3.0874C21.1529 3.03247 19.0825 3.0668 17.2517 3.1904C15.4209 3.31401 13.8052 3.54061 12.4044 3.87021C11.0037 4.19982 9.79953 4.61869 8.79197 5.12684C7.78442 5.63498 6.96117 6.25986 6.32224 7.00147C5.29011 8.18256 4.50373 9.43231 3.96309 10.7507C3.42245 12.0692 3.15213 13.415 3.15213 14.7884C3.15213 16.1068 3.40402 17.4871 3.9078 18.9291C4.41157 20.3711 5.03208 21.5316 5.76931 22.4105C7.07176 19.7188 8.63224 17.3016 10.4507 15.1592C12.2693 13.0168 14.1984 11.3275 16.238 10.0915C14.1001 12.1516 12.3676 14.3833 11.0405 16.7866C9.71351 19.19 8.75511 21.82 8.16532 24.6766Z" fill="black"/>
</svg>
