<svg width="31" height="27" viewBox="0 0 31 27" fill="none" xmlns="http://www.w3.org/2000/svg">
<path d="M1.14723 26.919C0.852893 26.919 0.606171 26.8114 0.407062 26.5962C0.207953 26.3809 0.108398 26.1142 0.108398 25.7961C0.108398 25.4779 0.207953 25.2134 0.407062 25.0025C0.606171 24.7916 0.852893 24.6862 1.14723 24.6862H29.5419C29.8362 24.6862 30.083 24.7938 30.2821 25.009C30.4812 25.2243 30.5807 25.491 30.5807 25.8091C30.5807 26.1273 30.4812 26.3918 30.2821 26.6027C30.083 26.8136 29.8362 26.919 29.5419 26.919H1.14723ZM3.57116 22.4534C3.01712 22.4534 2.53233 22.2301 2.1168 21.7835C1.70127 21.337 1.4935 20.816 1.4935 20.2206V2.35806C1.4935 1.76264 1.70127 1.24165 2.1168 0.795088C2.53233 0.348526 3.01712 0.125244 3.57116 0.125244H27.118C27.672 0.125244 28.1568 0.348526 28.5723 0.795088C28.9879 1.24165 29.1956 1.76264 29.1956 2.35806V20.2206C29.1956 20.816 28.9879 21.337 28.5723 21.7835C28.1568 22.2301 27.672 22.4534 27.118 22.4534H3.57116ZM3.57116 20.2206H27.118V2.35806H3.57116V20.2206Z" fill="black"/>
</svg>
